.
..............................Site Info...........................

 -   http://www.scenetime.com  *_*   

SceneTime is going to Close sign up on march/1, hurry up! get in before the doors are closed.

     We care to share . Join us on  http://www.scenetime.com 

    Be the first to get new release at  http://www.scenetime.com

        Seed back for speed


...................................NFO:.................................................








































          
          
              
              
                    
                    
                    
                    

Razor.Blade.Smile.1998.DVDRiP.AC3-5.1.XviD-SiC

Poster:
[img]http://img809.imageshack.us/img809/6157/600fullrazorbladesmilea.jpg[/img]

IMDB Link:
http://www.imdb.com/title/tt0159693/

Description:
A 19th century woman, who has become one of the undead, acts as a hired killer in modern times. When she starts knocking off part of the elite businessmen, "The Illuminati", who secretly are taking over business and the government, she becomes the target of a hired Scotland Yard detective. Of course, the head of "The Illuminati" is the vampire who first gave her immortality.


General
Complete name                    : Razor.Blade.Smile.1998.DVDRiP.AC3-5.1.XviD-SiC.avi
Format                           : AVI
Format/Info                      : Audio Video Interleave
File size                        : 1.36 GiB
Duration                         : 1h 38mn
Overall bit rate                 : 1 993 Kbps

Video
ID                               : 0
Format                           : MPEG-4 Visual
Format profile                   : Simple@L3
Format settings, BVOP            : 2
Format settings, QPel            : No
Format settings, GMC             : No warppoints
Format settings, Matrix          : Default (H.263)
Muxing mode                      : Packed bitstream
Codec ID                         : XVID
Codec ID/Hint                    : XviD
Duration                         : 1h 38mn
Bit rate                         : 1 730 Kbps
Width                            : 720 pixels
Height                           : 400 pixels
Display aspect ratio             : 16:9
Frame rate                       : 25.000 fps
Color space                      : YUV
Chroma subsampling               : 4:2:0
Bit depth                        : 8 bits
Scan type                        : Progressive
Compression mode                 : Lossy
Bits/(Pixel*Frame)               : 0.240
Stream size                      : 1.18 GiB (87%)
Writing library                  : XviD 1.0.3 (UTC 2004-12-20)

Audio
ID                               : 1
Format                           : AC-3
Format/Info                      : Audio Coding 3
Mode extension                   : CM (complete main)
Codec ID                         : 2000
Duration                         : 1h 38mn
Bit rate mode                    : Constant
Bit rate                         : 256 Kbps
Channel(s)                       : 6 channels
Channel positions                : Front: L C R, Side: L R, LFE
Sampling rate                    : 48.0 KHz
Bit depth                        : 16 bits
Compression mode                 : Lossy
Stream size                      : 179 MiB (13%)
Alignment                        : Aligned on interleaves
Interleave, duration             : 64 ms (1.60 video frames)
Interleave, preload duration     : 192 ms
Title                            : VTS_01_1 T81 3_2ch 448Kbps DELAY 0ms_new










Screenshots:
[img]http://img221.imageshack.us/img221/4978/vlcsnap2012021712h27m45.png[/img]
[img]http://img513.imageshack.us/img513/2290/vlcsnap2012021712h27m32.png[/img]
[img]http://img12.imageshack.us/img12/2462/vlcsnap2012021712h27m29.png[/img]
[img]http://img526.imageshack.us/img526/7923/vlcsnap2012021712h27m26.png[/img]

Note: 

Source: 

Enjoy!

Respects to T00NG0D, ELEKTRI4KA, PA, YeFsTe, MrRep and everyone in the struggle...RiP MU & BTJ